HIERARCHY
ROOT root
{
	OFFSET 0.000000 0.000000 0.000000
	CHANNELS 6 Xposition Yposition Zposition Zrotation Yrotation Xrotation
	JOINT lhip
	{
		OFFSET 0.058581 -0.082280 -0.017664
		CHANNELS 3 Zrotation Yrotation Xrotation
		JOINT lknee
		{
			OFFSET 0.043451 -0.386469 0.008037
			CHANNELS 3 Zrotation Yrotation Xrotation
			JOINT lankle
			{
				OFFSET -0.014790 -0.426874 -0.037428
				CHANNELS 3 Zrotation Yrotation Xrotation
				JOINT ltoe
				{
					OFFSET 0.041054 -0.060286 0.122042
					CHANNELS 3 Zrotation Yrotation Xrotation
					End Site
					{
						OFFSET 0.000000 0.000000 0.000000
					}
				}
			}
		}
	}
	JOINT rhip
	{
		OFFSET -0.060310 -0.090513 -0.013543
		CHANNELS 3 Zrotation Yrotation Xrotation
		JOINT rknee
		{
			OFFSET -0.043257 -0.383688 -0.004843
			CHANNELS 3 Zrotation Yrotation Xrotation
			JOINT rankle
			{
				OFFSET 0.019056 -0.420046 -0.034562
				CHANNELS 3 Zrotation Yrotation Xrotation
				JOINT rtoe
				{
					OFFSET -0.034840 -0.062106 0.130323
					CHANNELS 3 Zrotation Yrotation Xrotation
					End Site
					{
						OFFSET 0.000000 0.000000 0.000000
					}
				}
			}
		}
	}
	JOINT lowerback
	{
		OFFSET 0.004439 0.124404 -0.038385
		CHANNELS 3 Zrotation Yrotation Xrotation
		JOINT upperback
		{
			OFFSET 0.004488 0.137956 0.026820
			CHANNELS 3 Zrotation Yrotation Xrotation
			JOINT chest
			{
				OFFSET -0.002265 0.056032 0.002855
				CHANNELS 3 Zrotation Yrotation Xrotation
				JOINT lowerneck
				{
					OFFSET -0.013390 0.211636 -0.033468
					CHANNELS 3 Zrotation Yrotation Xrotation
					JOINT upperneck
					{
						OFFSET 0.010113 0.088937 0.050410
						CHANNELS 3 Zrotation Yrotation Xrotation
						End Site
						{
							OFFSET 0.000000 0.000000 0.000000
						}
					}
				}
				JOINT lclavicle
				{
					OFFSET 0.071702 0.114000 -0.018898
					CHANNELS 3 Zrotation Yrotation Xrotation
					JOINT lshoulder
					{
						OFFSET 0.122921 0.045205 -0.019046
						CHANNELS 3 Zrotation Yrotation Xrotation
						JOINT lelbow
						{
							OFFSET 0.255332 -0.015649 -0.022946
							CHANNELS 3 Zrotation Yrotation Xrotation
							JOINT lwrist
							{
								OFFSET 0.265709 0.012698 -0.007375
								CHANNELS 3 Zrotation Yrotation Xrotation
								End Site
								{
									OFFSET 0.000000 0.000000 0.000000
								}
							}
						}
					}
				}
				JOINT rclavicle
				{
					OFFSET -0.082954 0.112472 -0.023707
					CHANNELS 3 Zrotation Yrotation Xrotation
					JOINT rshoulder
					{
						OFFSET -0.113228 0.046853 -0.008472
						CHANNELS 3 Zrotation Yrotation Xrotation
						JOINT relbow
						{
							OFFSET -0.260127 -0.014369 -0.031269
							CHANNELS 3 Zrotation Yrotation Xrotation
							JOINT rwrist
							{
								OFFSET -0.269108 0.006794 -0.006027
								CHANNELS 3 Zrotation Yrotation Xrotation
								End Site
								{
									OFFSET 0.000000 0.000000 0.000000
								}
							}
						}
					}
				}
			}
		}
	}
}
MOTION
Frames: 13
Frame Time: 0.033333
2.357285 0.678266 1.002085 -84.269281 0.461467 83.309389 -0.763700 -1.220024 4.288990 -0.573788 -12.764686 1.181433 1.400694 7.948225 -6.869094 0.000000 -0.000000 0.000000 -0.411402 -4.704168 2.619297 -3.089426 -2.185352 7.389970 1.126611 -10.220147 -10.571117 0.000000 -0.000000 0.000000 1.417048 2.768748 7.520836 -0.920754 -2.719710 5.733821 0.159822 1.230792 -5.639025 -3.163986 25.382289 -4.615952 -1.611564 27.732188 5.209950 -31.256709 -9.631440 3.282518 -50.302746 -4.918381 14.746629 0.342988 -20.167876 11.706521 -4.740226 -8.296129 3.814925 27.484990 9.995697 9.263397 54.486763 4.186888 17.590741 -2.721566 26.518743 7.067633 5.374567 6.298996 2.559575 
2.359322 0.679508 0.999499 -84.467289 -0.201080 84.074005 -1.503156 -1.450187 3.105918 -0.632781 -12.577699 1.508677 1.493333 8.283157 -6.629533 0.000000 -0.000000 0.000000 -0.941339 -4.047640 1.149989 -3.234313 -2.289740 8.238722 0.980054 -10.723004 -10.669343 0.000000 -0.000000 0.000000 0.987433 2.745863 7.131000 -1.345262 -1.779055 5.005749 -0.176054 1.273336 -5.087404 -2.474258 25.255793 -4.971816 -1.777832 27.415891 5.610221 -30.554391 -8.788594 2.459522 -49.785106 -4.780425 15.347060 -1.571220 -21.410116 13.078808 -3.747595 -7.278557 3.884286 27.527921 9.902762 9.467453 54.916888 4.687302 18.144186 -2.629972 26.423238 6.601725 4.124423 5.857913 1.915758 
2.361197 0.681328 0.997294 -84.531798 -0.568737 84.480626 -1.812277 -1.592309 2.509562 -0.780103 -12.558183 1.583676 1.514388 8.414789 -6.443947 0.000000 -0.000000 0.000000 -1.156050 -3.623570 0.365124 -3.381337 -2.372684 8.605895 1.031808 -10.918815 -10.491394 0.000000 -0.000000 0.000000 0.749074 2.608529 7.425553 -1.569218 -1.353275 3.984114 -0.275683 1.562515 -4.641945 -2.733409 25.181129 -5.339421 -1.692573 27.420229 5.348485 -29.930323 -8.437974 1.949581 -50.806260 -4.861585 15.505344 -1.056554 -21.192315 12.445099 -4.355890 -7.094907 3.367222 27.259945 9.876893 9.427863 55.487253 4.916160 18.381490 -2.831433 26.331441 6.428882 4.604116 5.780250 1.618508 
2.361101 0.682230 0.996651 -83.784226 -0.557730 84.653289 -1.720902 -1.766015 2.187405 -0.898400 -12.748993 1.783441 1.504684 8.152734 -6.595470 0.000000 -0.000000 0.000000 -1.188081 -3.893152 0.471306 -3.347127 -2.641345 8.297784 1.088609 -11.150066 -10.277903 0.000000 -0.000000 0.000000 0.615033 2.614571 7.151144 -1.460919 -1.523141 3.863207 -0.276931 1.630131 -4.412918 -2.878993 25.098049 -5.409008 -1.681566 27.287390 5.053078 -30.050721 -8.373863 2.014670 -50.935622 -4.853808 15.545613 -0.751883 -20.955721 12.543450 -4.185803 -7.258814 3.494343 27.170920 9.767686 9.344953 55.558185 4.824128 18.273059 -2.781147 26.377538 6.487427 4.289693 5.751035 1.596090 
2.361044 0.682597 0.996747 -83.535567 -0.547053 84.669237 -1.678402 -1.799634 2.116873 -0.919639 -12.961466 1.871539 1.481392 8.093732 -6.630574 0.000000 -0.000000 0.000000 -1.167817 -4.003082 0.537674 -3.341228 -2.674692 8.220574 1.040506 -11.235779 -10.161805 0.000000 -0.000000 0.000000 0.543171 2.614116 7.154538 -1.401621 -1.506612 3.742673 -0.248580 1.678274 -4.366532 -2.942968 24.918040 -5.453964 -1.719228 27.295635 5.095130 -30.174033 -8.341956 2.003341 -50.902049 -4.831228 15.632002 -0.672485 -20.715553 12.578968 -3.945959 -7.415688 3.492770 27.055745 9.663395 9.347310 55.589148 4.750590 18.256734 -2.634707 26.441089 6.554405 4.171635 5.815114 1.460985 
2.361526 0.683171 0.996610 -83.453938 -0.622930 84.700207 -1.699262 -1.831248 2.110291 -0.960196 -13.010083 1.753101 1.440829 8.113438 -6.540538 0.000000 -0.000000 0.000000 -1.187650 -3.937040 0.477478 -3.403329 -2.776915 8.233619 1.037992 -11.359207 -10.253849 0.000000 -0.000000 0.000000 0.453942 2.605706 7.276582 -1.464735 -1.364121 3.658521 -0.279166 1.786513 -4.384968 -2.972771 24.880725 -5.600800 -1.628557 27.356446 5.054206 -30.089447 -8.362923 1.966664 -51.023371 -4.768151 15.677712 -0.460123 -20.758290 12.463842 -4.108031 -7.228981 3.403946 26.872398 9.827777 9.401854 55.802778 4.737077 18.321102 -2.683334 26.437975 6.440989 4.243726 5.743156 1.023506 
2.361325 0.683318 0.996621 -83.288348 -0.610500 84.624308 -1.688605 -1.862266 2.283583 -0.904865 -13.082341 1.559223 1.458069 8.085671 -6.431586 0.000000 -0.000000 0.000000 -1.217731 -4.067956 0.626493 -3.341483 -2.809884 8.185880 1.038986 -11.341877 -10.266321 0.000000 -0.000000 0.000000 0.570559 2.620176 7.498245 -1.570913 -1.389038 3.452523 -0.346820 1.820885 -4.421596 -2.847028 24.863653 -5.644151 -1.409356 27.543776 5.382392 -30.170770 -8.214349 2.019023 -50.795563 -4.665778 15.624031 -0.593505 -21.045498 12.700017 -3.803007 -7.191534 3.174108 26.823377 9.650868 9.306584 55.909932 4.679098 18.379281 -2.570087 26.452411 6.703966 4.181086 5.729533 0.966688 
2.361053 0.683572 0.996492 -83.005548 -0.585615 84.695282 -1.617474 -1.947205 2.126906 -0.972732 -13.198434 1.703776 1.494952 8.016457 -6.529417 0.000000 -0.000000 0.000000 -1.187309 -4.174243 0.653555 -3.343043 -2.877239 8.088505 1.034832 -11.414866 -10.259297 0.000000 -0.000000 0.000000 0.536170 2.633364 7.361635 -1.548162 -1.485537 3.489591 -0.357259 1.801240 -4.366211 -2.872933 24.893498 -5.789071 -1.359781 27.552544 5.513439 -30.150904 -8.217373 2.049679 -50.840036 -4.641259 15.703177 -0.461957 -21.026460 12.844415 -3.319890 -7.419353 3.233719 26.887979 9.624029 9.292158 55.889021 4.609812 18.371817 -2.581783 26.506171 6.763855 3.960841 5.698749 0.994190 
2.361082 0.683866 0.996543 -82.841612 -0.534889 84.670656 -1.507664 -2.022716 2.135246 -1.053709 -13.226224 1.703994 1.318471 7.913802 -6.512263 0.000000 -0.000000 0.000000 -1.148364 -4.277503 0.687141 -3.315110 -2.960395 8.107539 1.056588 -11.430828 -10.256962 0.000000 -0.000000 0.000000 0.542369 2.657543 7.365205 -1.536673 -1.518980 3.545366 -0.343296 1.855994 -4.344571 -2.855806 24.924014 -5.826842 -1.381054 27.476863 5.517861 -30.269201 -8.306009 2.100353 -50.718073 -4.686224 15.651386 -0.537097 -21.095119 12.951576 -3.540534 -7.567087 3.269890 26.982435 9.735681 9.432516 55.800505 4.610917 18.296065 -2.709486 26.589761 6.656736 4.025929 5.720164 0.893850 
2.362020 0.684208 0.996501 -82.946823 -0.553723 84.611307 -1.524820 -2.029598 2.158779 -1.032211 -13.244645 1.671426 1.436445 8.011950 -6.526712 0.000000 -0.000000 0.000000 -1.102885 -4.117435 0.606048 -3.318608 -2.895154 8.207735 0.866599 -11.432606 -10.183140 0.000000 -0.000000 0.000000 0.591298 2.591348 7.763782 -1.622980 -1.318792 3.250539 -0.385233 1.924425 -4.300462 -2.951136 24.871170 -5.913213 -1.374675 27.585258 5.454998 -30.396057 -8.410779 2.090342 -50.647166 -4.843521 15.704825 -0.493179 -21.017891 12.828544 -3.687901 -7.597298 3.047793 26.906414 9.774740 9.362663 55.883474 4.587505 18.438170 -2.627925 26.608388 6.738392 4.124749 5.707794 0.559813 
2.361999 0.684349 0.996323 -82.870831 -0.538098 84.680483 -1.481113 -2.073983 2.056854 -1.055059 -13.239458 1.695727 1.491377 7.956699 -6.420772 0.000000 -0.000000 0.000000 -1.075152 -4.130103 0.505251 -3.364487 -3.022301 8.294405 0.963322 -11.484320 -10.249348 0.000000 -0.000000 0.000000 0.631199 2.566383 7.800140 -1.663766 -1.325305 3.077248 -0.423558 1.953120 -4.257353 -2.908131 24.876471 -5.992224 -1.304733 27.602998 5.567576 -30.434578 -8.361961 2.090861 -50.592904 -4.811674 15.702144 -0.522836 -21.298457 12.926223 -3.777340 -7.526894 2.927546 26.915820 9.758378 9.345179 55.947922 4.523662 18.462480 -2.711120 26.699844 6.848837 4.248254 5.668818 0.532529 
2.361675 0.684184 0.996403 -82.840507 -0.536490 84.694746 -1.478739 -2.084684 2.074367 -1.051371 -13.257758 1.677463 1.458426 7.949923 -6.551713 0.000000 -0.000000 0.000000 -1.086952 -4.210070 0.570137 -3.329733 -2.977513 8.160331 1.002231 -11.487791 -10.297280 0.000000 -0.000000 0.000000 0.602670 2.615027 7.761636 -1.643438 -1.374595 3.147967 -0.411970 1.929672 -4.386098 -2.858659 24.889809 -5.997746 -1.225731 27.645938 5.723221 -30.476929 -8.362996 2.119339 -50.560188 -4.748672 15.775424 -0.561410 -21.421004 13.091383 -3.645176 -7.725628 2.974026 26.991223 9.714854 9.408061 55.847242 4.487895 18.424278 -2.620543 26.626741 6.876956 4.149931 5.708453 0.573562 
2.361338 0.684191 0.996224 -82.766830 -0.572000 84.799674 -1.500766 -2.110432 1.961603 -1.058583 -13.229916 1.684781 1.435959 7.917832 -6.507222 0.000000 -0.000000 0.000000 -1.121918 -4.267062 0.483387 -3.313558 -2.962796 8.162771 0.900886 -11.392398 -10.262757 0.000000 -0.000000 0.000000 0.531636 2.615348 7.485410 -1.604922 -1.405764 3.345506 -0.415634 1.900839 -4.383755 -2.873056 24.954558 -5.915374 -1.365271 27.592621 5.478405 -30.377985 -8.335052 2.030879 -50.622791 -4.762509 15.765236 -0.718337 -21.626177 12.926129 -3.622871 -7.560625 2.868886 26.958730 9.713870 9.384630 55.853295 4.473037 18.431410 -2.579461 26.671466 6.795804 4.211119 5.678927 0.617090 
